<svg>
    <text font-size="146.5" textLength="265.1" fill="rgb(255, 255, 255)" x="66" y="358.3">
        hello
    </text>
    <path stroke="rgb(187, 73, 73)" d="M 266 42.5 C 266 42.5 266 42.5 266 42.5 S 321 99.5 321 103.5 S 252 151.5 252 151.5 S 228 77.5 228 76.5 S 124 42.5 159 14 S 224 34.5 224 34.5" fill="rgb(255, 255, 255)"/>
    <path d="M 48 3 S 136 162 136 162 S 136 162 136 162" fill="rgb(255, 255, 255)"/>
    <path height="18" width="90" x="135" y="51" d="" fill="rgb(255, 255, 255)"/>
    <polyline points="352,153 302,113 347,189 374,139 343,93" fill="rgb(255, 255, 255)"/>
    <polyline points="371,190 299,188 321,259 285,235 375,286" fill="rgb(255, 255, 255)"/>
    <rect height="0" width="0" x="0" y="0" fill="rgb(255, 255, 255)"/>
</svg>